<svg xmlns="http://www.w3.org/2000/svg" version="1.1" xmlns:xlink="http://www.w3.org/1999/xlink" xmlns:svgjs="http://svgjs.dev/svgjs" width="1000" height="1125" viewBox="0 0 1000 1125"><g transform="matrix(1,0,0,1,0,0)"><svg viewBox="0 0 320 360" data-background-color="#ffffff" preserveAspectRatio="xMidYMid meet" height="1125" width="1000" xmlns="http://www.w3.org/2000/svg" xmlns:xlink="http://www.w3.org/1999/xlink"><g id="tight-bounds" transform="matrix(1,0,0,1,0,0)"><svg viewBox="0 0 320 360" height="360" width="320"><g><svg></svg></g><g><svg viewBox="0 0 320 360" height="360" width="320"><g><path xmlns="http://www.w3.org/2000/svg" d="M165.217 303.356c-1.404-1.755-2.809-0.702-2.808-1.755-8.426 2.106-24.223-3.511-30.894-2.809 1.404-2.106-2.106-1.755-2.106-3.159-1.404 2.106-2.809 0-4.915 0.702-2.106-5.266-10.532-1.404-11.585-8.075-4.915 0-6.67-2.809-11.586-5.617 0.351-0.351 0.702-0.351 1.054-0.702-2.457-0.351-2.457-1.755-4.564-1.755l0.702-1.405c-3.862-0.702-5.266-6.67-10.883-8.776-1.755-0.351-5.617-6.319-7.723-7.724-1.053-0.702-2.809-0.702-0.352-1.053-0.351-0.351-0.351-1.053 0-1.404-2.457-0.702-2.809-2.809-5.968-3.862-0.351-1.053 0.702-1.755 0-2.457-0.702-0.351-1.755 0.351-2.457 0-0.351 6.319 6.67 7.021 8.777 12.287-0.702-0.702-1.755-2.809-2.458-1.404-0.351 1.053 2.809 4.915 2.809 2.808-1.053 0.702-1.404-1.053-0.703-1.404 1.053 1.755 3.16 1.404 3.16 2.809-1.053 1.053-2.457-1.053-2.106 0.702 3.16 1.755 2.809 3.511 4.563 5.968-1.404-1.755-1.755 1.404-3.159 0-0.351-5.266-6.319-4.213-6.319-9.479-0.702-1.755-1.404-0.351-2.458-1.053 1.404-1.404-4.213-6.319-4.213-4.564-1.755-2.106-0.702-2.809-1.053-4.213-1.404-0.351-0.351 1.404-1.404 0.351 1.404-2.457-1.755-5.617-3.862-8.074l1.405-0.702c-2.457-1.404-2.809-4.213-4.564-7.373-2.106 3.16 4.213 10.181 3.159 11.585 0 0.351 2.457 3.16 3.16 4.564 2.809 4.915 4.915 10.883 8.777 13.692-0.702-0.351-0.351-2.457 0.702-1.404 0 1.053-0.702 2.106-0.702 3.159 2.106 2.106 3.862 3.862 5.968 5.968-4.564-2.809-9.128-5.617-12.288-9.83 1.755-0.351 3.511 2.809 4.915 2.458-3.511-2.809-2.457-3.862-3.861-7.372-1.404-1.053 0.351 1.404-1.054 1.755-4.564-4.213-8.075-6.67-10.181-10.532 0.351-0.351 0.702-0.702 0.703-1.404-0.351-0.351-0.351-0.351-0.703-0.702 2.106 2.106 2.809 3.862 5.266 4.212-1.053-1.053 0-1.404-1.404-2.457-0.702-1.404-1.755 0.702-2.457-0.351 0.702-1.053 0-2.457 0-3.511-0.702 0-1.404 0-1.756-1.053-0.702-0.351-1.053 0-1.404 0.702-0.351-0.351-0.351-1.053-0.702-1.404v-0.351c-0.351-0.351-0.702-1.053-1.053-1.405-2.809-7.372-4.564-17.202-8.426-23.521 1.053-4.213-0.702-12.638-1.755-14.745 1.053-1.755 0.351-9.83-0.351-11.234-1.755 0.702 0.351 4.564-1.404 5.617-1.755-7.723 1.053-16.5 0.351-23.521 0.702 0 1.404 0 1.404-0.351-1.053-1.053 0.702-3.16 0.351-5.617 1.404-3.16-3.16 4.564-3.16 7.723-0.351 0.702-1.755 0-1.404 1.756 0 2.457 0.702 7.372-0.702 10.883-0.702 0-0.702-0.702-1.404-0.351-0.351 1.755-0.702 3.862-1.053 5.617-0.351-0.702-0.702-1.755-0.703-2.107-1.755-8.777 0-18.958-0.702-26.33 1.404 0 1.404-2.106 2.458-2.808-0.351 2.809-1.053 6.319 0.702 7.021 1.404-13.692 4.213-28.787 10.532-43.532 4.564-10.883 11.234-21.766 19.308-30.543 0.702 1.053-0.351 3.511 0 4.564 7.021-7.372 11.585-16.149 19.309-21.064 0.351 1.755-3.16 3.16-3.16 4.564 3.16-3.16 4.213-2.106 7.724-3.159 1.053-1.404-1.404 0-1.756-1.405 2.106-1.404 3.511-3.16 4.915-4.212 0 0.351-0.351 0.351-0.351 0.702 3.862-1.053 4.213-3.16 7.022-3.862-0.351-0.351-1.053-0.702-2.107-0.351 0.702-0.351 1.755-1.053 2.809-1.404-0.351 0-0.351 0.351-0.702 0.351 2.106-1.053 0.351 0.351 0.351 1.053 0.351 0 0.702-0.351 0.702-0.351-2.106 1.404-3.511 2.106-4.213 4.564 1.053-0.702 1.404 0 2.809-1.054 1.404-0.702-0.351-1.755 0.702-2.457 1.053 0.702 2.457 0.351 3.51 0.351 0-0.702 0.351-1.404 1.054-1.755 0.351-0.702 0-1.053-0.352-1.053 0.351-0.351 0.702-0.351 1.405-0.703 0 0 0.351 0 0.351 0.351 5.968-2.809 12.638-5.266 18.957-7.372 3.862-0.351 8.777-0.351 10.883-2.808-0.702 0-1.404 0.351-1.755 0 0.351 0 1.053-0.351 1.404-0.351 0.702 0.702 1.755 0 0.702 1.404 0.351 0 0.351 0 0.703-0.351 0 0.351 0 0.351 0.351 0.702 0.351 0 0.702-0.351 1.053-1.053 0.351 0 0.702 0 1.053-0.351l-0.351 0.351c2.809-0.702 5.266-0.351 9.128-1.054 0-0.351 0-0.702 0-1.053 0.702 0 1.053-0.351 1.755-0.351v0.351c1.404-0.702 2.809 0.702 2.808 0 0.351 0 0.351 0 0.703 0 0 0.702-0.351 1.053-0.351 1.405 1.755 0 2.809 0 3.51-1.054-0.351-0.351-0.702-0.351-1.053-0.351 0.702 0 1.404-0.351 2.106-0.702 1.053 0.351 1.404 0.702 1.405 2.107 1.755-3.16 7.372 0.702 9.829 0 1.053 0 0.702-1.404 1.405-2.107 0.351 0 0.702 0 1.053 0 1.755 1.404 4.213 2.809 7.372 3.16-2.809-0.702 0.351-1.053 0.702-1.405-0.702 0-0.702-0.351-0.702-0.702 1.053 0 2.106 0.351 3.16 0.351 0 0.702 0.351 1.053 1.053 1.054 0.702 0 0.702-0.351 0.702-1.054 1.053 0 1.755 0 2.809 0.351-0.351 1.404 1.755 1.755 2.457 2.809-2.809-0.702-5.968-1.755-7.021 0 11.234 2.457 23.521 5.968 35.457 11.936 0 0 0 0 0 0.351h0.352c2.106 1.053 4.213 2.106 6.319 3.16 1.404 0.702 2.457 1.404 3.861 2.457 0 0.351 0 0.702 0.703 0.702h0.351c1.404 1.053 2.809 1.755 4.212 2.809 1.404 2.106 2.809 4.915 5.266 4.213 5.266 8.075 10.883 11.234 15.447 19.659 0.351-1.404 1.404 3.16 3.16 3.511-2.809-0.351 1.755 1.755-1.053 1.404 2.457 2.457 3.16 3.511 3.51 6.319-0.702-1.404-1.053-1.755-1.404-0.351-0.351 2.106 2.457-0.351 3.511 1.756-2.106 0-1.404 1.404-1.054 3.159 1.053-1.053 0.702-2.106 1.756-1.755 1.404 1.404-0.702 1.755-0.351 2.809 1.053-1.404 1.404-0.702 2.808 0-1.755 0.351 1.053 2.809-1.053 1.755 1.404 1.755 1.755 2.809 1.053 4.564-1.404-2.106-0.351-3.511-2.457-3.16 4.213 3.511 2.106 11.585 7.021 12.287-3.16 0.702 0 2.106-1.755 2.458 2.106 0.702 1.053 3.511 3.51 4.213-0.351 1.755-1.053 2.809-1.404 4.563 1.053 1.404 1.404 4.213 3.16 4.564-1.053 1.053-0.351 3.862-1.404 4.915 1.404-0.702 2.106-0.702 3.159 0.702-1.755 1.404-0.351 2.809-1.404 3.16 3.16 8.075-0.702 24.575 1.053 30.894-2.106-1.053-1.404 2.457-2.808 2.457 2.457 1.053 0.351 2.809 1.404 4.564-4.915 2.809 0 10.532-6.67 12.287 0.702 4.915-2.106 7.021-4.213 12.288-0.351-0.351-0.351-0.702-0.702-1.054-0.351 2.457-1.755 2.809-1.054 4.915l-1.404-0.702c0 3.862-5.968 5.968-7.372 11.936-0.351 1.755-5.617 6.319-7.022 8.777-0.702 1.053-0.351 2.809-1.053 0.351-0.351 0.351-1.053 0.351-1.404 0.351-0.351 2.457-2.457 3.16-3.16 6.319-0.702 0.351-1.755-0.702-2.457 0.351 0 0.702 0.702 1.755 0.351 2.458 6.319-0.351 6.319-7.723 11.234-10.181-0.351 1.053-2.457 2.106-1.053 2.808 1.053 0 4.213-3.511 2.457-3.159 1.053 0.702-1.053 1.404-1.404 1.053 1.755-1.404 1.053-3.16 2.458-3.511 1.053 0.702-1.053 2.457 1.053 2.107 1.404-3.16 3.16-3.511 5.266-5.266-1.404 1.404 1.755 1.755 0.351 3.159-5.266 1.053-3.511 7.021-8.777 7.724-1.404 1.053-0.351 1.404-0.702 2.457-1.755-1.053-5.617 4.915-4.213 4.564-1.755 1.755-2.809 1.053-4.212 1.404-0.351 1.404 1.404 0.351 0.702 1.405-2.457-1.053-5.617 2.457-7.724 4.915l-1.053-1.054c-1.053 2.809-3.862 3.16-7.021 5.266 3.511 1.755 9.479-5.617 11.234-4.564 0.351 0 3.16-2.809 4.213-3.861 4.564-3.511 10.181-6.319 12.287-10.181-0.351 0.702-2.457 0.702-1.404-0.351 1.053-0.351 2.106 0.351 3.159 0.351 5.617-7.723 12.638-14.043 17.905-23.17 0.351-0.351 0.702-1.053 1.053-1.756-0.702 2.106-1.755 3.862-2.458 5.968-5.617 3.862-7.723 15.096-14.393 16.851 0.351 3.862-3.16 4.915-4.915 9.479-1.053 1.404-1.755-1.053-2.809 0.702 1.053 4.915-8.777 4.564-8.425 9.128-0.702 0.351-1.755 0.702-2.458 1.404h-0.351c-0.351 0.351-0.351 0.351-0.702 0.702-1.755 1.053-3.16 2.106-4.564 3.16-4.915 2.809-11.585 4.915-16.851 7.723v-0.351c-1.404 0.702-3.16 0.351-2.809 1.756-1.053 0.702-2.106 1.404-3.159 2.106-0.351 0-0.351 0-0.702 0 0 0-0.351-0.351-0.702-0.351-0.702 0-0.702 0-1.054 0.351-4.564 0.351-10.532 2.457-12.287 3.862-1.755-1.053-9.83 0.702-11.234 1.404 0.702 1.053 2.809 0 4.564 0-1.053 0.351-2.106 0.702-2.458 1.404-0.351 0-0.351 0-0.702 0-0.351-1.053-1.404 0-1.755-0.351h0.351c-0.351-1.404-1.404-2.106-3.16-1.755 0 0.702 0 1.053-0.351 1.755 0.702 0 2.809-1.053 2.809 0-0.351 0-0.351 0.351 0 0.351-0.702 0.702-1.755 0.702-2.458 1.054-1.404 0-3.16 0-4.563 0-0.351-0.351-0.702-0.351-1.405-0.703-0.351 0.351-1.053 0.351-1.404 0.703-2.106 0-4.564 0.351-6.319 0.702 0-0.702 0-1.404-0.702-1.405-1.053 1.404-3.16-0.351-5.617 0.352-2.457-0.702 1.404 1.053 4.915 1.755-0.351 0.351-0.702 0.702-1.756 1.053M116.068 308.271c-4.915-4.564-15.096-6.67-16.851-10.181-2.809-0.351-7.021-5.617-10.532-6.319 1.755 0 0.351-1.053 0-1.755-0.702 0.702-1.404 1.053-2.106 1.053 0-2.809-2.809-4.564-5.266-6.319 1.755 1.053 3.16 1.755 5.266 2.106 0-0.702 0-1.404 0.702-1.404 2.457 2.457 5.266 4.915 8.425 7.372 4.213 3.862 25.979 13.692 29.841 15.447 0 0-0.702 1.404-0.351 1.404 1.755 1.053 3.16-1.053 3.511 1.404-5.617 0.702-7.723-3.16-12.639-2.808M277.909 226.824v0.351 0c-0.351 0 0-0.351 0-0.351M136.079 64.281c-0.351 0.351-0.702 0.351-0.702 0.351 0-0.351 0.351-0.351 0.702-0.351M129.409 66.036c0 0.351 0 0.351 0 0 0 0.351 0 0.351 0 0 0 0.351 0 0 0 0M106.238 73.408v0c0.351-0.351 0.351-0.351 0.703-0.351-0.351 0-0.702 0.351-0.703 0.351M162.409 61.823c-0.702 0-1.053 0-1.404-0.351 0.351 0 0.702 0 1.053 0h0.351c0 0 0 0 0 0.351M168.728 62.525c-0.351-0.351-1.404-0.702-2.457-0.702 0-0.351 0.351-0.702 0.351-0.702 0.351 0 0.702 0 1.053 0 0 0 0.351 0 0.351 0.351 0 0 0 0 0-0.351 0.351 0 0.351 0 0.702 0 0.351 0.702 0.702 1.053 0 1.404M180.313 63.579c-1.755 0.351-2.809-0.351-4.564-1.405 1.053 0 2.457 0.351 3.511 0.702 0.351 0 0.702 0.351 1.053 0.703M305.292 113.43c-0.702 0.351-1.053 0.351-1.755-1.053-5.617-11.936-15.798-29.138-30.543-43.532-14.394-14.745-33.702-26.681-51.255-33.001 1.053 0.351 2.457 1.053 1.755 1.756-15.447-5.968-30.192-9.479-44.234-10.883-37.915-5.968-77.585 2.106-108.128 21.766 0.351 0.702 0.351 1.053-0.702 1.755-11.234 7.021-27.032 19.309-39.671 35.458-12.638 16.149-22.468 36.511-26.681 54.766 0.351-1.053 0.702-2.809 1.405-2.107-9.128 36.16-6.67 67.053 5.968 93.735 0.702-0.702-1.755-4.213 0.351-3.862 1.404 3.862 3.16 8.075 5.266 11.936 2.457 5.617 5.266 12.989 9.128 14.745-9.83-19.309-16.5-41.426-17.203-61.085 1.404 2.809 1.053 8.777 3.16 11.234 0.702-13.34-2.457-31.245 2.106-43.883-1.053 6.67-1.755 15.798-1.053 24.925 0 6.67 3.16 25.277 5.266 27.032-0.351-0.351-0.351-2.106 0-2.106 1.053 2.106-1.404 3.16 0.351 3.511 0-0.702 0.351-0.702 0.702-0.703 3.511 7.723 8.075 19.66 11.585 25.628 4.213 7.723 9.83 14.745 16.149 21.064 0 0.351 0.351 0.351 0.352 0.702 0.702 1.755 3.16 3.862 3.861 5.266 0.351 0.702-0.351 1.755 0 2.458 5.266 9.83 12.989 19.66 22.468 27.383 5.968 7.021 15.447 14.394 27.032 20.713 11.234 5.968 24.223 10.883 36.16 13.691 8.426 2.106 18.606 2.457 24.926 3.862 8.426 1.755 23.17-0.702 30.542-2.107 44.234-6.67 88.117-36.862 110.235-80.393 22.819-43.883 22.117-97.596 2.457-138.671" fill="#000000" fill-rule="nonzero" stroke="none" stroke-width="1" stroke-linecap="butt" stroke-linejoin="miter" stroke-miterlimit="10" stroke-dasharray="" stroke-dashoffset="0" font-family="none" font-weight="none" font-size="none" text-anchor="none" style="mix-blend-mode: normal" data-fill-palette-color="tertiary"></path></g><g transform="matrix(1,0,0,1,88,108)"><svg viewBox="0 0 144 144" height="144" width="144"><g><svg viewBox="0 0 144 144" height="144" width="144"><g><svg viewBox="0 0 144 144" height="144" width="144"><g id="textblocktransform"><svg viewBox="0 0 144 144" height="144" width="144" id="textblock"><g><svg viewBox="0 0 144 144" height="144" width="144"><g transform="matrix(1,0,0,1,46.54415587728428,46.54415587728428)"><svg viewBox="0 0 50.91168824543143 50.91168824543143" height="50.91168824543143" width="50.91168824543143"><g><svg xmlns="http://www.w3.org/2000/svg" xmlns:xlink="http://www.w3.org/1999/xlink" version="1.1" x="0" y="0" viewBox="2 2 124 124" style="enable-background:new 0 0 128 128;" xml:space="preserve" height="50.91168824543143" width="50.91168824543143" class="icon-o-0" data-fill-palette-color="accent" id="o-0"><g fill="#61777f" data-fill-palette-color="accent"><g fill="#61777f" data-fill-palette-color="accent"><path d="M117.522 55.526c-4.675 0-8.479 3.802-8.479 8.474s3.804 8.474 8.479 8.474c4.675 0 8.478-3.802 8.478-8.474S122.197 55.526 117.522 55.526z" fill="#000000" data-fill-palette-color="accent"></path><path d="M109.606 66.119H73.184c-1.17 0-2.118-0.949-2.118-2.119 0-1.17 0.949-2.119 2.118-2.119h36.422c1.17 0 2.118 0.949 2.118 2.119C111.725 65.17 110.776 66.119 109.606 66.119z" fill="#000000" data-fill-palette-color="accent"></path><path d="M63.682 54.467c-5.26 0-9.539 4.276-9.539 9.533s4.279 9.533 9.539 9.533S73.22 69.257 73.22 64 68.942 54.467 63.682 54.467z" fill="#000000" data-fill-palette-color="accent"></path><path d="M10.478 55.526C5.803 55.526 2 59.328 2 64s3.803 8.474 8.478 8.474 8.479-3.802 8.479-8.474S15.154 55.526 10.478 55.526z" fill="#000000" data-fill-palette-color="accent"></path><path d="M54.18 66.119H18.394c-1.17 0-2.118-0.949-2.118-2.119 0-1.17 0.949-2.119 2.118-2.119H54.18c1.17 0 2.118 0.949 2.118 2.119C56.298 65.17 55.35 66.119 54.18 66.119z" fill="#000000" data-fill-palette-color="accent"></path><path d="M63.682 2c-4.675 0-8.478 3.802-8.478 8.474s3.803 8.474 8.478 8.474 8.478-3.802 8.478-8.474S68.357 2 63.682 2z" fill="#000000" data-fill-palette-color="accent"></path><path d="M63.682 56.62c-1.17 0-2.118-0.949-2.118-2.119V18.385c0-1.17 0.949-2.119 2.118-2.119s2.118 0.949 2.118 2.119v36.116C65.8 55.672 64.852 56.62 63.682 56.62z" fill="#000000" data-fill-palette-color="accent"></path><path d="M63.682 109.052c-4.675 0-8.478 3.802-8.478 8.474S59.007 126 63.682 126s8.478-3.802 8.478-8.474S68.357 109.052 63.682 109.052z" fill="#000000" data-fill-palette-color="accent"></path><path d="M63.682 111.733c-1.17 0-2.118-0.949-2.118-2.119V73.498c0-1.17 0.949-2.119 2.118-2.119s2.118 0.949 2.118 2.119v36.116C65.8 110.784 64.852 111.733 63.682 111.733z" fill="#000000" data-fill-palette-color="accent"></path></g></g></svg></g></svg></g><g><path d="M18.013 46.566l-2.995 7.681c-0.364 0.933-0.673 1.606-0.927 2.018-0.255 0.413-0.438 0.597-0.551 0.553v0l-2.18-2.288c0.172-0.293 0.477-0.928 0.915-1.904 0.438-0.976 0.966-2.256 1.583-3.84v0l0.637-1.634c0.19-0.488 0.248-0.841 0.175-1.057-0.072-0.223-0.239-0.385-0.503-0.488v0l-0.206-0.08c-0.332-0.129-0.593-0.134-0.784-0.014-0.189 0.114-0.378 0.415-0.569 0.903v0l-1.845 4.733c-0.544 1.396-1.196 2.31-1.956 2.742-0.769 0.436-1.738 0.426-2.909-0.03v0l-0.751-0.293c-0.607-0.237-1.119-0.57-1.536-0.999-0.425-0.425-0.687-0.975-0.786-1.648-0.092-0.67 0.051-1.491 0.43-2.461v0l2.676-6.864c0.329-0.845 0.65-1.528 0.961-2.049 0.32-0.524 0.533-0.766 0.639-0.724v0l2.328 1.632c-0.193 0.365-0.523 1.073-0.99 2.124-0.461 1.053-1.011 2.4-1.651 4.04v0l-0.611 1.482c-0.166 0.426-0.225 0.752-0.176 0.981 0.048 0.228 0.229 0.41 0.543 0.547v0l0.141 0.055c0.319 0.124 0.579 0.114 0.781-0.031 0.195-0.148 0.375-0.434 0.54-0.86v0l1.776-4.555c0.344-0.883 0.728-1.599 1.151-2.147 0.426-0.555 0.94-0.903 1.542-1.043 0.605-0.146 1.371-0.039 2.298 0.322v0l0.742 0.29c1.033 0.403 1.766 0.991 2.199 1.766 0.425 0.779 0.381 1.825-0.131 3.14z" fill="#000000" data-fill-palette-color="primary"></path><path d="M31.134 29.012v0c-0.464 0.558-1.029 1.005-1.695 1.342-0.661 0.332-1.351 0.536-2.07 0.611v0c-0.379 0.035-0.754 0.071-1.128 0.11-0.374 0.029-0.751 0.061-1.129 0.096v0c-0.795 0.073-1.521 0.246-2.178 0.521-0.658 0.265-1.29 0.762-1.897 1.49v0l-0.141 0.17 3.74 3.115-2.735 3.284-8.674-7.224-1.504-0.965 2.876-3.454 3.942 3.283 0.426-0.511c0.159-0.191 0.258-0.362 0.297-0.513 0.039-0.151 0.042-0.345 0.011-0.581v0c-0.072-0.523-0.179-1.129-0.323-1.817-0.149-0.693-0.313-1.388-0.491-2.088-0.178-0.699-0.343-1.305-0.495-1.815v0l3.483-4.182 0.442 1.548c0.073 0.542 0.144 1.139 0.213 1.791 0.078 0.651 0.149 1.291 0.211 1.92 0.062 0.629 0.117 1.204 0.165 1.724 0.047 0.52 0.08 0.933 0.098 1.236v0c0.442-0.226 0.866-0.394 1.271-0.502 0.406-0.099 0.857-0.205 1.352-0.317v0c0.453-0.103 0.859-0.186 1.216-0.246 0.357-0.061 0.772-0.144 1.244-0.25v0c0.992-0.215 1.734-0.497 2.227-0.847 0.493-0.35 0.791-0.587 0.894-0.711v0l1.33 2.261c-0.058 0.144-0.171 0.352-0.337 0.625-0.165 0.282-0.379 0.581-0.641 0.896z" fill="#000000" data-fill-palette-color="primary"></path><path d="M45.805 18.731l-10.646 6.699-6.957-11.055 12.079-7.601 1.611 2.559-8.411 5.293 0.982 1.561 6.227-3.919 1.643 2.611-6.228 3.918 1.101 1.749 8.104-5.099 2.626 1.657c0.032 0.051-0.11 0.204-0.426 0.459-0.313 0.26-0.881 0.65-1.705 1.168z" fill="#000000" data-fill-palette-color="primary"></path><path d="M55.418 15.468l-4.136 1.074-2.838-10.926-0.66-1.661 3.96-1.029 7.664 4.57 1.085 0.728 0.234-0.06-1.842-7.092 4.126-1.072 3.284 12.642-3.59 0.933-7.847-4.595-1.103-0.797-0.215 0.056z" fill="#000000" data-fill-palette-color="primary"></path><path d="M73.523 13.197l-4.643-0.469 7.791-12.341 5.746 0.58 5.135 13.647-4.753-0.48-0.844-2.476-6.979-0.705zM79.139 3.533l-2.642 4.494 4.533 0.458-1.67-4.93z" fill="#000000" data-fill-palette-color="primary"></path><path d="M100.123 20.122l-3.733-2.12 6.448-11.359 3.734 2.12-2.458 4.33 6.004 3.408 2.458-4.33 3.716 2.11-6.448 11.359-3.717-2.11 2.503-4.408-6.004-3.409z" fill="#000000" data-fill-palette-color="primary"></path><path d="M119.45 36.535l-4.013-4.483c-0.99-1.106-1.479-2.175-1.465-3.207 0.005-1.032 0.588-2.068 1.75-3.108v0l6.6-5.909 2.891 3.229-6.308 5.646c-0.516 0.462-0.749 0.901-0.701 1.318 0.053 0.412 0.246 0.803 0.578 1.174v0l1.916 2.14c0.314 0.35 0.682 0.575 1.104 0.675 0.418 0.104 0.879-0.07 1.385-0.523v0l6.308-5.647 2.844 3.176-6.601 5.909c-1.161 1.04-2.249 1.513-3.262 1.419-1.018-0.09-2.027-0.693-3.026-1.809z" fill="#000000" data-fill-palette-color="primary"></path><path d="M128.866 53.452l-4.491-10.07 11.948-5.328 4.13 9.26c0.566 1.27 0.728 2.309 0.485 3.117-0.252 0.804-0.737 1.366-1.455 1.686v0l-0.608 0.271c-0.552 0.246-1.061 0.334-1.527 0.262-0.463-0.081-0.828-0.223-1.096-0.428v0c0.075 0.68-0.042 1.299-0.353 1.857-0.308 0.564-0.842 1.016-1.603 1.355v0l-0.359 0.16c-0.411 0.183-0.841 0.316-1.289 0.399-0.446 0.089-0.894 0.075-1.343-0.042-0.449-0.116-0.882-0.368-1.298-0.756-0.419-0.394-0.799-0.975-1.141-1.743zM135.309 43.252l-1.823 0.813 1.81 4.059c0.156 0.35 0.338 0.559 0.546 0.629 0.207 0.069 0.44 0.047 0.697-0.069v0l0.203-0.09c0.288-0.129 0.464-0.288 0.526-0.478 0.056-0.187-0.021-0.517-0.231-0.989v0zM130.909 45.214l-1.989 0.887 2.18 4.887c0.159 0.356 0.333 0.573 0.522 0.651 0.189 0.078 0.425 0.053 0.707-0.073v0l0.368-0.164c0.258-0.115 0.417-0.293 0.479-0.534 0.065-0.235 0-0.57-0.194-1.006v0z" fill="#000000" data-fill-palette-color="primary"></path><path d="M8.739 103.875l-2.994-7.681c-0.364-0.933-0.591-1.637-0.684-2.114-0.092-0.476-0.082-0.736 0.032-0.78v0l3.153 0.209c0.072 0.333 0.277 1.006 0.615 2.021 0.338 1.015 0.816 2.314 1.433 3.898v0l0.637 1.634c0.19 0.488 0.386 0.787 0.588 0.896 0.204 0.115 0.437 0.122 0.7 0.02v0l0.206-0.081c0.332-0.129 0.527-0.303 0.587-0.521 0.062-0.212-0.003-0.562-0.193-1.05v0l-1.845-4.732c-0.544-1.396-0.683-2.51-0.416-3.343 0.271-0.841 0.991-1.49 2.162-1.946v0l0.751-0.293c0.607-0.237 1.21-0.338 1.807-0.304 0.601 0.025 1.166 0.252 1.693 0.681 0.522 0.431 0.971 1.132 1.35 2.102v0l2.676 6.865c0.329 0.845 0.556 1.565 0.679 2.158 0.119 0.602 0.126 0.924 0.02 0.966v0l-2.818 0.374c-0.105-0.399-0.341-1.143-0.709-2.234-0.374-1.088-0.88-2.451-1.519-4.091v0l-0.554-1.504c-0.166-0.426-0.344-0.706-0.534-0.842-0.19-0.135-0.447-0.147-0.771-0.034v0l-0.14 0.054c-0.319 0.124-0.504 0.308-0.554 0.552-0.043 0.24 0.018 0.574 0.184 0.999v0l1.776 4.554c0.344 0.883 0.546 1.669 0.606 2.36 0.063 0.697-0.081 1.301-0.429 1.812-0.346 0.517-0.983 0.957-1.91 1.317v0l-0.741 0.29c-1.033 0.403-1.971 0.466-2.815 0.188-0.84-0.286-1.516-1.086-2.029-2.4z" fill="#000000" data-fill-palette-color="primary"></path><path d="M23.145 124.467v0c-0.464-0.558-0.802-1.194-1.014-1.911-0.207-0.711-0.283-1.426-0.226-2.146v0c0.035-0.379 0.066-0.755 0.096-1.129 0.039-0.373 0.075-0.749 0.11-1.128v0c0.073-0.795 0.033-1.54-0.118-2.236-0.142-0.695-0.516-1.407-1.122-2.135v0l-0.142-0.17-3.741 3.115-2.735-3.283 8.674-7.224 1.221-1.306 2.877 3.454-3.942 3.283 0.426 0.511c0.159 0.191 0.31 0.319 0.451 0.385 0.142 0.065 0.332 0.104 0.569 0.116v0c0.527 0.024 1.142 0.028 1.846 0.011 0.708-0.021 1.422-0.056 2.142-0.105 0.72-0.049 1.345-0.102 1.875-0.158v0l3.483 4.182-1.603 0.154c-0.546-0.026-1.146-0.064-1.8-0.114-0.655-0.041-1.297-0.087-1.927-0.14-0.63-0.053-1.205-0.103-1.725-0.15-0.52-0.047-0.932-0.09-1.234-0.127v0c0.143 0.476 0.231 0.923 0.265 1.341 0.024 0.417 0.046 0.88 0.066 1.387v0c0.02 0.465 0.027 0.878 0.023 1.241-0.004 0.362 0.002 0.785 0.02 1.268v0c0.032 1.014 0.175 1.795 0.431 2.344 0.255 0.548 0.435 0.884 0.538 1.008v0l-2.466 0.898c-0.131-0.083-0.315-0.232-0.553-0.444-0.248-0.213-0.503-0.478-0.765-0.792z" fill="#000000" data-fill-palette-color="primary"></path><path d="M40.504 136.518l-10.646-6.699 6.956-11.055 12.079 7.6-1.61 2.559-8.411-5.292-0.982 1.561 6.227 3.918-1.642 2.611-6.228-3.919-1.1 1.749 8.104 5.099-0.358 3.086c-0.032 0.051-0.231-0.011-0.597-0.186-0.37-0.169-0.967-0.513-1.792-1.032z" fill="#000000" data-fill-palette-color="primary"></path><path d="M52.916 140.991l-4.136-1.074 2.837-10.926 0.232-1.773 3.96 1.029 4.472 7.722 0.593 1.164 0.234 0.061 1.842-7.092 4.126 1.072-3.283 12.642-3.59-0.932-4.62-7.833-0.575-1.233-0.215-0.055z" fill="#000000" data-fill-palette-color="primary"></path><path d="M74.524 143.531l-4.643 0.469 5.165-13.65 5.746-0.581 7.761 12.344-4.754 0.481-1.322-2.257-6.979 0.705zM78.093 132.939l-1.69 4.932 4.533-0.458-2.622-4.496z" fill="#000000" data-fill-palette-color="primary"></path><path d="M105.037 135.359l-3.733 2.119-6.449-11.359 3.734-2.119 2.458 4.329 6.004-3.408-2.459-4.33 3.717-2.11 6.448 11.359-3.716 2.11-2.503-4.408-6.004 3.408z" fill="#000000" data-fill-palette-color="primary"></path><path d="M127.196 117.225l-4.013 4.483c-0.99 1.106-1.999 1.709-3.026 1.809-1.027 0.109-2.121-0.356-3.282-1.396v0l-6.601-5.909 2.891-3.229 6.307 5.647c0.516 0.462 0.978 0.645 1.387 0.551 0.404-0.098 0.771-0.333 1.103-0.703v0l1.916-2.141c0.314-0.35 0.497-0.741 0.549-1.172 0.057-0.427-0.167-0.866-0.672-1.319v0l-6.308-5.647 2.843-3.176 6.601 5.909c1.161 1.04 1.751 2.068 1.769 3.085 0.023 1.022-0.465 2.091-1.464 3.208z" fill="#000000" data-fill-palette-color="primary"></path><path d="M137.956 97.426l-4.49 10.071-11.948-5.328 4.129-9.261c0.566-1.27 1.231-2.085 1.995-2.443 0.767-0.35 1.509-0.364 2.227-0.044v0l0.607 0.271c0.552 0.246 0.957 0.567 1.216 0.961 0.249 0.398 0.387 0.765 0.414 1.101v0c0.456-0.51 0.995-0.837 1.617-0.979 0.625-0.148 1.318-0.052 2.079 0.288v0l0.359 0.16c0.411 0.183 0.797 0.414 1.158 0.693 0.364 0.273 0.653 0.615 0.867 1.026 0.214 0.412 0.315 0.902 0.304 1.471-0.014 0.575-0.192 1.246-0.534 2.013zM126.063 99.45l1.822 0.813 1.811-4.06c0.156-0.35 0.19-0.625 0.103-0.825-0.087-0.201-0.259-0.358-0.517-0.474v0l-0.203-0.09c-0.288-0.129-0.524-0.153-0.707-0.072-0.177 0.083-0.371 0.361-0.581 0.833v0zM130.463 101.412l1.988 0.887 2.18-4.888c0.159-0.356 0.204-0.63 0.135-0.823-0.069-0.192-0.244-0.352-0.527-0.477v0l-0.368-0.164c-0.258-0.115-0.497-0.115-0.717 0-0.218 0.109-0.424 0.381-0.618 0.817v0z" fill="#000000" data-fill-palette-color="primary"></path><path d="M1.692 73.413c0-2.76 2.237-4.997 4.997-4.998 2.76 0 4.997 2.237 4.997 4.998 0 2.76-2.237 4.997-4.997 4.997-2.76 0-4.997-2.237-4.997-4.997z" fill="#000000" data-fill-palette-color="primary"></path><path d="M132.314 73.413c0-2.76 2.237-4.997 4.997-4.998 2.76 0 4.997 2.237 4.997 4.998 0 2.76-2.237 4.997-4.997 4.997-2.76 0-4.997-2.237-4.997-4.997z" fill="#000000" data-fill-palette-color="primary"></path></g></svg></g></svg></g></svg></g><g></g></svg></g></svg></g></svg></g><defs></defs></svg><rect width="320" height="360" fill="none" stroke="none" visibility="hidden"></rect></g></svg></g></svg>